<?xml version="1.0" encoding="UTF-8" standalone="no"?>
<!DOCTYPE svg PUBLIC "-//W3C//DTD SVG 1.1//EN" "http://www.w3.org/Graphics/SVG/1.1/DTD/svg11.dtd">
<svg width="100%" height="100%" viewBox="0 0 791 791" version="1.1" xmlns="http://www.w3.org/2000/svg" xmlns:xlink="http://www.w3.org/1999/xlink" xml:space="preserve" xmlns:serif="http://www.serif.com/" style="fill-rule:evenodd;clip-rule:evenodd;stroke-linejoin:round;stroke-miterlimit:2;">
    <g transform="matrix(1,0,0,1,-0.498,-0.497)">
        <g>
            <path d="M791.016,79.955L791.016,711.558C791.016,755.412 755.413,791.015 711.559,791.015L79.955,791.015C36.101,791.015 0.498,755.412 0.498,711.558L0.498,79.955C0.498,36.101 36.101,0.497 79.955,0.497L711.559,0.497C755.413,0.497 791.016,36.101 791.016,79.955ZM695.393,676.064L695.364,674.305C694.949,673.574 694.119,672.635 692.735,671.449C561.223,564.245 575.788,361.734 613.13,153.586C618.002,126.429 610.423,117.07 587.942,117.084C545.165,117.109 434.246,133.28 393.623,144.363C377.121,148.864 374.324,157.745 374.334,180.235C374.393,597.042 619.662,662.823 689.296,676.4C690.878,676.706 694.346,677.102 695.393,676.064ZM321.498,275.894C270.332,288.186 225.015,305.884 183.236,323.69C179.56,324.738 173.701,330.983 175.212,338.75C191.695,422.92 272.071,660.283 579.306,678.772C586.371,679.098 593.505,677.803 587.942,674.335C546.509,642.497 400.154,614.7 339.897,292.791C336.735,275.894 334.611,272.742 321.498,275.894ZM166.181,478.444C147.87,489.472 117.475,510.539 100.548,526.478C93.246,533.366 92.9,536.814 94.382,542.2C108.048,592.032 188.701,679.384 389.048,672.615C398.514,672.299 399.364,667.922 393.623,665.738C374.334,658.416 327.071,643.03 269.175,589.779C240.213,563.129 210.746,522.644 190.983,484.176C186.072,473.672 179.639,470.351 166.181,478.444Z"/>
        </g>
    </g>
</svg>
