<?xml version="1.0" encoding="UTF-8" standalone="no"?>
<!DOCTYPE svg PUBLIC "-//W3C//DTD SVG 1.1//EN" "http://www.w3.org/Graphics/SVG/1.1/DTD/svg11.dtd">
<svg width="100%" height="100%" viewBox="0 0 2617 863" version="1.1" xmlns="http://www.w3.org/2000/svg" xmlns:xlink="http://www.w3.org/1999/xlink" xml:space="preserve" xmlns:serif="http://www.serif.com/" style="fill-rule:evenodd;clip-rule:evenodd;stroke-linejoin:round;stroke-miterlimit:2;">
    <g>
        <g>
            <path d="M791.016,79.955L791.016,711.558C791.016,755.412 755.413,791.015 711.559,791.015L79.955,791.015C36.101,791.015 0.498,755.412 0.498,711.558L0.498,79.955C0.498,36.101 36.101,0.497 79.955,0.497L711.559,0.497C755.413,0.497 791.016,36.101 791.016,79.955ZM695.393,676.064L695.364,674.305C694.949,673.574 694.119,672.635 692.735,671.449C561.223,564.245 575.788,361.734 613.13,153.586C618.002,126.429 610.423,117.07 587.942,117.084C545.165,117.109 434.246,133.28 393.623,144.363C377.121,148.864 374.324,157.745 374.334,180.235C374.393,597.042 619.662,662.823 689.296,676.4C690.878,676.706 694.346,677.102 695.393,676.064ZM321.498,275.894C270.332,288.186 225.015,305.884 183.236,323.69C179.56,324.738 173.701,330.983 175.212,338.75C191.695,422.92 272.071,660.283 579.306,678.772C586.371,679.098 593.505,677.803 587.942,674.335C546.509,642.497 400.154,614.7 339.897,292.791C336.735,275.894 334.611,272.742 321.498,275.894ZM166.181,478.444C147.87,489.472 117.475,510.539 100.548,526.478C93.246,533.366 92.9,536.814 94.382,542.2C108.048,592.032 188.701,679.384 389.048,672.615C398.514,672.299 399.364,667.922 393.623,665.738C374.334,658.416 327.071,643.03 269.175,589.779C240.213,563.129 210.746,522.644 190.983,484.176C186.072,473.672 179.639,470.351 166.181,478.444Z"/>
            <path d="M1447.89,479.272L1304.02,479.272C1288.5,479.272 1275.92,466.694 1275.92,451.173L1275.92,369.805C1275.92,354.287 1288.5,341.706 1304.02,341.706L1571.62,341.706C1585.97,341.706 1598.02,352.518 1599.56,366.785C1601.06,380.649 1602.18,397.134 1602.18,413.997C1602.18,599.39 1467.24,716.019 1305.07,716.019C1124.81,716.019 982.003,572.108 982.003,396.459C982.003,220.385 1125.83,75.5 1301.91,75.5L1302.05,75.5C1379.95,75.884 1469.07,113.302 1527.4,170.098C1537.12,179.564 1538.69,194.627 1531.12,205.893L1481.66,279.547C1477,286.49 1469.49,290.996 1461.17,291.84C1452.86,292.683 1444.59,289.777 1438.63,283.911C1399.89,245.781 1347.9,221.135 1300.86,221.135C1212.09,221.135 1128.34,295.609 1128.34,396.459C1128.34,492.129 1204.78,570.384 1308.92,570.384C1378.53,570.384 1434.54,535.212 1447.89,479.272ZM1979.76,705.921L1896.65,705.921C1889.64,705.921 1883.08,702.487 1879.08,696.737L1772.44,543.423C1770.6,540.759 1767.56,539.171 1764.31,539.171L1759.08,539.171C1753.61,539.171 1749.17,543.607 1749.17,549.078L1749.17,684.513C1749.17,696.335 1739.59,705.921 1727.77,705.921L1660.15,705.921C1648.34,705.921 1638.76,696.341 1638.75,684.527L1638.48,253.757C1638.48,248.077 1640.73,242.629 1644.75,238.611C1648.76,234.593 1654.21,232.335 1659.89,232.335L1793.77,232.335C1886.01,232.335 1961.09,303.932 1961.09,392.167C1961.09,446.955 1931.22,495.639 1887.25,520.876L1997.08,671.921C2001.81,678.435 2002.49,687.054 1998.83,694.229C1995.18,701.404 1987.81,705.921 1979.76,705.921ZM1748.91,440.237L1795.51,440.237C1824.16,440.428 1848.52,417.704 1848.52,390.564C1848.52,362.358 1823.58,342.226 1795.37,342.226L1748.91,342.226L1748.91,440.237ZM2027.1,684.513L2027.1,253.744C2027.1,241.921 2036.68,232.336 2048.5,232.335L2116.11,232.335C2127.93,232.336 2137.52,241.921 2137.52,253.744L2137.52,684.513C2137.52,696.335 2127.93,705.921 2116.11,705.921L2048.5,705.921C2036.68,705.921 2027.1,696.335 2027.1,684.513ZM2501.54,253.744L2501.54,320.818C2501.54,332.642 2491.95,342.226 2480.13,342.226L2386.09,342.226L2386.09,684.513C2386.09,696.335 2376.51,705.921 2364.68,705.921L2296.81,705.921C2284.99,705.921 2275.4,696.335 2275.4,684.513L2275.4,342.226L2181.37,342.226C2169.54,342.226 2159.96,332.642 2159.96,320.818L2159.96,253.744C2159.96,241.921 2169.54,232.335 2181.37,232.335L2480.13,232.335C2491.95,232.335 2501.54,241.921 2501.54,253.744ZM1877.9,854.766L1877.9,748.37C1877.9,745.277 1880.4,742.77 1883.5,742.77L1918.06,742.77C1941.29,742.77 1960.19,760.642 1960.19,782.445C1960.19,803.82 1941.3,821.358 1918.06,821.358L1901.15,821.358C1900.88,821.358 1900.66,821.576 1900.66,821.849L1900.66,854.766C1900.66,856.251 1900.08,857.675 1899.03,858.724C1897.97,859.774 1896.55,860.366 1895.06,860.366L1883.5,860.366C1880.4,860.366 1877.9,857.859 1877.9,854.766ZM1918.08,798.805C1928.64,798.866 1937.42,791.535 1937.42,782.309C1937.42,772.886 1928.65,765.398 1918.06,765.398L1901.15,765.398C1900.88,765.398 1900.66,765.616 1900.66,765.888L1900.66,798.253C1900.66,798.526 1900.88,798.744 1901.15,798.744L1918.07,798.805L1918.08,798.805ZM2049.2,860.366L2035.07,860.366C2033.24,860.366 2031.52,859.467 2030.47,857.961L2002,817.032C2001.91,816.902 2001.76,816.827 2001.6,816.827L1992.42,816.827C1992.29,816.827 1992.17,816.875 1992.07,816.963C1991.99,817.059 1991.93,817.181 1991.93,817.311L1991.93,854.766C1991.93,856.251 1991.35,857.675 1990.3,858.724C1989.24,859.774 1987.82,860.366 1986.33,860.366L1974.77,860.366C1971.67,860.366 1969.17,857.859 1969.17,854.772L1969.1,748.377C1969.1,746.892 1969.68,745.461 1970.74,744.412C1971.79,743.362 1973.21,742.77 1974.7,742.77L2006.61,742.77C2028.98,742.77 2047.26,760.069 2047.26,781.471C2047.26,795.657 2038.96,808.167 2027.03,813.72L2027.01,813.727C2026.87,813.788 2026.78,813.904 2026.74,814.047C2026.7,814.19 2026.73,814.34 2026.82,814.456L2053.73,851.475C2054.97,853.178 2055.15,855.433 2054.19,857.307C2053.23,859.181 2051.3,860.366 2049.2,860.366ZM1992.35,797.061L2007.05,797.061C2016.22,797.115 2023.94,789.75 2023.94,781.055C2023.94,772.007 2016.08,765.398 2007.03,765.398L1992.35,765.398C1992.22,765.398 1992.09,765.452 1992.01,765.541C1991.91,765.629 1991.86,765.752 1991.86,765.888L1991.86,796.57C1991.86,796.7 1991.91,796.822 1992.01,796.918C1992.09,797.006 1992.22,797.061 1992.35,797.061ZM2113.57,862.179C2080.21,862.179 2052.96,834.931 2052.96,801.708C2052.96,768.198 2080.21,740.821 2113.64,740.821C2147,740.821 2174.39,768.205 2174.39,801.708C2174.39,834.924 2147.01,862.179 2113.57,862.179ZM2113.57,839.203C2134.36,839.203 2151.42,822.285 2151.42,801.571C2151.42,780.715 2134.36,763.722 2113.57,763.722C2092.79,763.722 2075.87,780.722 2075.87,801.571C2075.87,822.285 2092.79,839.203 2113.57,839.203ZM2221.49,814.769L2221.16,748.411C2221.15,746.919 2221.73,745.481 2222.79,744.425C2223.85,743.369 2225.28,742.776 2226.78,742.783L2238.34,742.831C2241.42,742.845 2243.91,745.325 2243.92,748.398L2244.25,814.885L2244.25,814.913C2244.25,841.527 2223.08,862.526 2196.83,862.526L2196.06,862.526C2187.57,862.526 2179.03,860.155 2172,856.04L2171.96,856.012C2169.37,854.432 2168.51,851.079 2170.03,848.449C2171.62,845.676 2174.18,841.206 2175.9,838.297C2176.66,836.975 2177.94,836.028 2179.43,835.674C2180.91,835.326 2182.47,835.592 2183.76,836.437C2187.26,838.59 2191.61,839.83 2196.2,839.83L2196.69,839.83C2210.36,839.83 2221.48,828.308 2221.49,814.769ZM2324.02,765.255L2280.78,765.255C2280.51,765.255 2280.29,765.479 2280.29,765.745L2280.29,788.476C2280.29,788.748 2280.51,788.966 2280.78,788.966L2317.26,788.966C2318.74,788.966 2320.16,789.552 2321.21,790.601C2322.26,791.651 2322.86,793.082 2322.86,794.56L2322.86,806.062C2322.86,807.547 2322.26,808.971 2321.21,810.02C2320.16,811.07 2318.74,811.662 2317.26,811.662L2280.78,811.662C2280.64,811.662 2280.52,811.71 2280.43,811.805C2280.34,811.894 2280.29,812.017 2280.29,812.146L2280.29,837.18C2280.29,837.452 2280.51,837.67 2280.78,837.67L2324.02,837.67C2325.51,837.67 2326.93,838.256 2327.98,839.312C2329.04,840.362 2329.62,841.786 2329.62,843.271L2329.62,854.766C2329.62,856.251 2329.04,857.675 2327.98,858.724C2326.93,859.774 2325.51,860.366 2324.02,860.366L2263.13,860.366C2260.03,860.366 2257.53,857.859 2257.53,854.766L2257.53,748.37C2257.53,745.277 2260.03,742.77 2263.13,742.77L2324.02,742.77C2325.51,742.77 2326.93,743.362 2327.98,744.412C2329.04,745.461 2329.62,746.885 2329.62,748.37L2329.62,759.661C2329.62,761.146 2329.04,762.57 2327.98,763.619C2326.93,764.669 2325.51,765.255 2324.02,765.255ZM2398.32,862.179C2365.03,862.179 2337.43,834.781 2337.43,801.64C2337.43,768.573 2365.03,740.835 2398.02,740.821L2398.1,740.821C2412.41,741.032 2425.72,746.749 2436.82,756.751L2436.84,756.758C2438.96,758.693 2439.27,761.923 2437.57,764.233C2435.78,766.651 2432.89,770.569 2430.94,773.193C2430.01,774.453 2428.59,775.271 2427.03,775.434C2425.47,775.598 2423.91,775.1 2422.74,774.065C2415.7,767.878 2407,763.865 2397.7,763.865C2378.62,763.865 2360.41,780.606 2360.41,801.708C2360.41,822.939 2378.88,839.339 2397.76,839.339C2407.44,839.339 2415.88,834.979 2422.76,828.908C2423.94,827.852 2425.52,827.354 2427.1,827.525C2428.67,827.702 2430.1,828.54 2431.03,829.834C2432.98,832.56 2435.89,836.628 2437.66,839.101C2439.3,841.397 2438.98,844.552 2436.91,846.467L2436.9,846.473C2427.07,855.508 2414.7,862.179 2398.32,862.179ZM2529.64,748.37L2529.64,759.797C2529.64,762.89 2527.13,765.398 2524.04,765.398L2499.98,765.398C2499.85,765.398 2499.72,765.452 2499.64,765.541C2499.55,765.629 2499.49,765.752 2499.49,765.888L2499.49,854.766C2499.49,856.251 2498.9,857.675 2497.85,858.724C2496.8,859.774 2495.38,860.366 2493.89,860.366L2482.25,860.366C2480.77,860.366 2479.35,859.774 2478.3,858.724C2477.25,857.675 2476.66,856.251 2476.66,854.766L2476.66,765.888C2476.66,765.752 2476.61,765.629 2476.52,765.541C2476.42,765.452 2476.3,765.398 2476.17,765.398L2452.11,765.398C2449.02,765.398 2446.51,762.89 2446.51,759.797L2446.51,748.37C2446.51,745.277 2449.02,742.77 2452.11,742.77L2524.04,742.77C2527.13,742.77 2529.64,745.277 2529.64,748.37ZM2573.55,862.247C2555.22,862.247 2541.07,854.118 2533.74,841.82L2533.72,841.792C2532.27,839.299 2532.95,836.103 2535.3,834.427C2537.8,832.642 2541.87,829.732 2544.52,827.858C2547.02,826.073 2550.49,826.639 2552.28,829.119C2557.1,835.687 2564.9,839.339 2573.76,839.339C2579.51,839.339 2584.58,838.011 2588.19,835.653C2591.38,833.568 2593.39,830.693 2593.39,827.245C2593.39,823.818 2591.3,821.018 2588.28,818.49C2582.92,814.034 2574.68,810.559 2567.04,807.274L2566.99,807.247C2552.92,800.992 2537.64,793.388 2537.64,774.562C2537.64,754.755 2554.65,740.746 2576.41,740.746C2592.53,740.746 2604.78,748.139 2610.39,759.92L2610.4,759.94C2611.54,762.413 2610.75,765.35 2608.5,766.897C2606.26,768.45 2602.62,770.971 2600.1,772.675C2598.87,773.52 2597.36,773.84 2595.89,773.554C2594.42,773.267 2593.13,772.409 2592.3,771.169C2588.84,765.984 2582.83,763.163 2576.55,763.163C2567.8,763.163 2560.55,768.239 2560.55,774.985C2560.55,778.473 2562.8,780.715 2566.23,782.793C2570.45,785.355 2576.36,787.549 2583.05,790.424L2583.1,790.438C2601.95,798.716 2616.23,808.126 2616.23,826.898C2616.23,848.238 2597.96,862.247 2573.55,862.247Z"/>
        </g>
    </g>
</svg>
