<?xml version="1.0" encoding="UTF-8" standalone="no"?>
<!DOCTYPE svg PUBLIC "-//W3C//DTD SVG 1.1//EN" "http://www.w3.org/Graphics/SVG/1.1/DTD/svg11.dtd">
<svg width="100%" height="100%" viewBox="0 0 792 792" version="1.1" xmlns="http://www.w3.org/2000/svg" xmlns:xlink="http://www.w3.org/1999/xlink" xml:space="preserve" xmlns:serif="http://www.serif.com/" style="fill-rule:evenodd;clip-rule:evenodd;stroke-linecap:round;stroke-linejoin:round;stroke-miterlimit:1.5;">
    <g id="LOGO" transform="matrix(0.98815,0,0,0.98815,-1241.61,-726.779)">
        <path d="M1257,936.374C1257,825.71 1346.71,736 1457.37,736L1856.63,736C1967.29,736 2057,825.71 2057,936.374L2057,1335.63C2057,1446.29 1967.29,1536 1856.63,1536L1457.37,1536C1346.71,1536 1257,1446.29 1257,1335.63L1257,936.374Z" style="stroke:black;stroke-width:1.01px;"/>
    </g>
    <path d="M695.396,676.068C694.348,677.105 690.88,676.71 689.299,676.403C619.664,662.826 374.395,597.045 374.336,180.238C374.326,157.747 377.123,148.867 393.625,144.366C434.247,133.283 545.167,117.112 587.944,117.086C610.425,117.072 618.004,126.432 613.132,153.588C575.79,361.737 561.225,564.248 692.738,671.453C694.121,672.639 694.951,673.577 695.366,674.309L695.396,676.068Z" style="fill:white;"/>
    <path d="M321.5,275.896C334.612,272.744 336.737,275.896 339.899,292.794C400.156,614.703 546.511,642.5 587.944,674.338C593.508,677.807 586.373,679.101 579.308,678.775C272.072,660.287 191.696,422.923 175.214,338.753C173.702,330.986 179.562,324.741 183.238,323.693C225.017,305.887 270.333,288.189 321.5,275.896Z" style="fill:white;"/>
    <path d="M166.182,478.447C179.641,470.354 186.074,473.675 190.985,484.179C210.748,522.647 240.214,563.132 269.177,589.782C327.073,643.034 374.336,658.419 393.625,665.741C399.366,667.925 398.516,672.303 389.049,672.619C188.702,679.388 108.049,592.035 94.383,542.203C92.901,536.817 93.247,533.369 100.549,526.481C117.476,510.543 147.872,489.475 166.182,478.447Z" style="fill:white;"/>
</svg>
